<svg xmlns="http://www.w3.org/2000/svg" xmlns:xlink="http://www.w3.org/1999/xlink" width="180" zoomAndPan="magnify" viewBox="0 0 135 40.499999" height="54" preserveAspectRatio="xMidYMid meet" version="1.0"><defs><g/><clipPath id="a350f84a21"><path d="M 131 12.277344 L 133.933594 12.277344 L 133.933594 17 L 131 17 Z M 131 12.277344 " clip-rule="nonzero"/></clipPath><clipPath id="a103e7bd09"><path d="M 15 18 L 38 18 L 38 25.929688 L 15 25.929688 Z M 15 18 " clip-rule="nonzero"/></clipPath><clipPath id="f637916e94"><path d="M 92.785156 14.734375 L 94.933594 14.734375 L 94.933594 25.929688 L 92.785156 25.929688 Z M 92.785156 14.734375 " clip-rule="nonzero"/></clipPath></defs><path fill="#ffffff" d="M 119.320312 8.144531 C 114.046875 7.960938 111.296875 8.378906 111.296875 8.378906 C 111.308594 8.308594 111.304688 8.324219 111.316406 8.257812 C 111.085938 8.171875 110.855469 8.082031 110.621094 7.996094 C 110.382812 7.917969 110.148438 7.835938 109.910156 7.753906 C 108.953125 7.433594 107.964844 7.097656 106.945312 6.757812 C 106.441406 6.578125 105.917969 6.433594 105.390625 6.273438 C 104.863281 6.117188 104.328125 5.960938 103.789062 5.796875 C 103.519531 5.71875 103.25 5.636719 102.976562 5.554688 C 102.839844 5.511719 102.703125 5.472656 102.566406 5.433594 C 102.429688 5.394531 102.289062 5.359375 102.148438 5.324219 C 101.59375 5.179688 101.03125 5.03125 100.464844 4.882812 C 99.898438 4.738281 99.328125 4.585938 98.75 4.441406 C 98.171875 4.3125 97.589844 4.179688 97 4.046875 C 96.414062 3.917969 95.824219 3.773438 95.226562 3.652344 C 94.628906 3.535156 94.027344 3.421875 93.425781 3.304688 C 92.21875 3.054688 90.996094 2.882812 89.769531 2.675781 C 89.15625 2.574219 88.535156 2.507812 87.917969 2.421875 L 86.988281 2.296875 C 86.679688 2.261719 86.371094 2.230469 86.0625 2.195312 C 84.820312 2.058594 83.582031 1.953125 82.34375 1.882812 C 82.035156 1.867188 81.726562 1.851562 81.417969 1.832031 C 81.109375 1.824219 80.804688 1.816406 80.496094 1.804688 C 80.1875 1.792969 79.898438 1.796875 79.597656 1.792969 C 79.269531 1.796875 78.984375 1.8125 78.675781 1.820312 C 77.46875 1.84375 76.269531 1.96875 75.085938 2.105469 C 73.90625 2.273438 72.742188 2.460938 71.609375 2.710938 C 69.339844 3.203125 67.175781 3.839844 65.160156 4.558594 C 63.144531 5.273438 61.273438 6.058594 59.578125 6.839844 C 56.179688 8.410156 53.476562 9.980469 51.621094 11.132812 C 50.691406 11.707031 49.980469 12.179688 49.5 12.503906 C 49.261719 12.671875 49.078125 12.796875 48.957031 12.882812 L 48.953125 12.886719 C 48.816406 12.953125 48.585938 12.996094 48.4375 12.984375 L 47.410156 12.894531 C 47.222656 12.878906 47.164062 12.636719 47.320312 12.53125 C 47.703125 12.289062 48.175781 11.984375 48.253906 11.929688 C 48.378906 11.839844 48.5625 11.703125 48.808594 11.527344 C 49.296875 11.183594 50.011719 10.691406 50.949219 10.085938 C 52.8125 8.882812 55.53125 7.238281 58.964844 5.570312 C 60.683594 4.742188 62.578125 3.910156 64.632812 3.136719 C 66.683594 2.363281 68.902344 1.667969 71.246094 1.117188 C 72.410156 0.832031 73.617188 0.617188 74.84375 0.417969 C 76.078125 0.253906 77.332031 0.101562 78.605469 0.0507812 C 78.917969 0.0390625 79.253906 0.015625 79.550781 0.0078125 C 79.867188 0.0078125 80.207031 -0.00390625 80.519531 0.00390625 C 80.839844 0.0078125 81.15625 0.0117188 81.476562 0.015625 C 81.796875 0.0273438 82.113281 0.0351562 82.433594 0.046875 C 83.707031 0.0976562 84.980469 0.183594 86.25 0.300781 C 86.566406 0.332031 86.886719 0.355469 87.203125 0.386719 L 88.152344 0.496094 C 88.785156 0.574219 89.417969 0.632812 90.046875 0.722656 C 91.300781 0.910156 92.558594 1.0625 93.789062 1.296875 C 94.40625 1.40625 95.023438 1.511719 95.632812 1.617188 C 96.246094 1.730469 96.847656 1.867188 97.449219 1.988281 C 98.054688 2.113281 98.652344 2.234375 99.242188 2.359375 C 99.835938 2.492188 100.417969 2.640625 101 2.777344 C 101.578125 2.917969 102.152344 3.058594 102.722656 3.195312 C 102.867188 3.230469 103.007812 3.265625 103.152344 3.300781 C 103.289062 3.339844 103.429688 3.375 103.570312 3.414062 C 103.851562 3.492188 104.128906 3.570312 104.40625 3.644531 C 104.957031 3.800781 105.503906 3.953125 106.046875 4.101562 C 106.585938 4.257812 107.125 4.394531 107.640625 4.566406 C 108.683594 4.898438 109.699219 5.21875 110.679688 5.53125 C 110.925781 5.609375 111.167969 5.6875 111.410156 5.761719 C 111.648438 5.847656 111.882812 5.929688 112.117188 6.015625 C 112.582031 6.183594 113.042969 6.347656 113.492188 6.507812 C 114.390625 6.832031 115.253906 7.132812 116.066406 7.441406 C 116.074219 7.441406 116.078125 7.445312 116.085938 7.449219 C 117.113281 7.863281 118.210938 8.09375 119.320312 8.144531 " fill-opacity="1" fill-rule="nonzero"/><path fill="#ffffff" d="M 90.914062 11.101562 L 91.625 10.957031 C 91.8125 10.917969 91.964844 10.78125 92.019531 10.597656 L 94.054688 3.910156 C 94.066406 3.882812 94.0625 3.851562 94.046875 3.828125 C 94.03125 3.804688 94.007812 3.789062 93.980469 3.785156 L 93.757812 3.738281 C 93.503906 3.6875 93.246094 3.835938 93.164062 4.082031 L 90.800781 10.972656 C 90.789062 11.007812 90.796875 11.042969 90.820312 11.070312 C 90.839844 11.09375 90.867188 11.105469 90.894531 11.105469 C 90.902344 11.105469 90.90625 11.101562 90.914062 11.101562 " fill-opacity="1" fill-rule="nonzero"/><path fill="#ffffff" d="M 133.121094 10.878906 C 133.121094 10.972656 133.105469 11.070312 133.070312 11.164062 C 132.808594 11.902344 132.007812 12.3125 131.253906 12.085938 C 130.417969 11.835938 129.566406 11.617188 128.707031 11.425781 C 127.386719 11.136719 126.042969 10.925781 124.695312 10.75 C 124.339844 10.707031 123.988281 10.667969 123.632812 10.632812 C 120.507812 10.214844 116.574219 10.324219 116.574219 10.324219 L 116.570312 10.324219 C 113.796875 10.34375 111.015625 10.511719 108.246094 10.789062 C 106.875 10.929688 105.507812 11.09375 104.144531 11.292969 C 103.460938 11.390625 102.78125 11.5 102.101562 11.609375 L 101.089844 11.789062 L 100.585938 11.886719 L 100.46875 11.910156 L 100.375 11.925781 L 100.308594 11.9375 L 100.050781 11.980469 L 95.914062 12.667969 L 93.847656 13.007812 L 91.769531 13.3125 C 90.382812 13.511719 89.003906 13.71875 87.613281 13.910156 L 83.449219 14.417969 L 82.40625 14.546875 L 81.359375 14.648438 L 79.269531 14.851562 C 78.570312 14.917969 77.875 14.996094 77.175781 15.050781 L 72.980469 15.347656 L 70.878906 15.441406 L 68.773438 15.53125 L 66.671875 15.566406 C 65.96875 15.574219 65.269531 15.589844 64.566406 15.59375 L 62.460938 15.566406 C 61.058594 15.566406 59.660156 15.496094 58.257812 15.449219 C 57.554688 15.429688 56.859375 15.382812 56.15625 15.347656 L 54.0625 15.230469 C 52.667969 15.128906 51.269531 15.042969 49.882812 14.9375 C 47.097656 14.726562 44.324219 14.507812 41.546875 14.328125 C 40.855469 14.28125 40.160156 14.242188 39.46875 14.207031 L 37.394531 14.09375 C 36.003906 14.027344 34.609375 13.992188 33.21875 13.9375 C 30.472656 13.855469 27.703125 13.925781 24.964844 14.191406 C 22.230469 14.457031 19.507812 14.894531 16.84375 15.570312 C 14.183594 16.234375 11.582031 17.136719 9.105469 18.289062 C 7.867188 18.867188 6.664062 19.507812 5.511719 20.230469 C 4.9375 20.589844 4.375 20.96875 3.832031 21.367188 C 3.558594 21.570312 3.292969 21.773438 3.035156 21.984375 C 2.917969 22.082031 2.796875 22.183594 2.683594 22.285156 C 2.667969 22.34375 2.652344 22.390625 2.636719 22.453125 L 2.734375 22.746094 C 2.820312 23.003906 2.683594 23.285156 2.429688 23.382812 L 2.050781 23.527344 C 1.875 23.59375 1.675781 23.511719 1.597656 23.339844 L 1.175781 22.394531 C 1.074219 22.167969 1.117188 21.902344 1.289062 21.71875 L 1.324219 21.679688 C 1.476562 21.527344 1.601562 21.414062 1.742188 21.289062 C 1.878906 21.167969 2.015625 21.050781 2.152344 20.933594 C 2.429688 20.707031 2.714844 20.484375 3 20.269531 C 3.570312 19.84375 4.160156 19.4375 4.761719 19.058594 C 5.960938 18.296875 7.210938 17.617188 8.492188 17.007812 C 11.054688 15.792969 13.734375 14.84375 16.472656 14.140625 C 19.210938 13.421875 22.003906 12.953125 24.8125 12.664062 C 27.625 12.371094 30.441406 12.277344 33.269531 12.34375 C 34.664062 12.386719 36.054688 12.414062 37.453125 12.46875 L 39.550781 12.566406 C 40.253906 12.601562 40.953125 12.632812 41.648438 12.679688 C 44.441406 12.835938 47.226562 13.039062 50.003906 13.226562 C 51.394531 13.324219 52.78125 13.402344 54.167969 13.492188 L 56.246094 13.59375 C 56.941406 13.625 57.632812 13.664062 58.328125 13.679688 C 59.710938 13.714844 61.097656 13.773438 62.480469 13.765625 L 64.558594 13.777344 C 65.253906 13.769531 65.945312 13.746094 66.636719 13.734375 L 68.714844 13.6875 L 72.863281 13.476562 L 74.9375 13.3125 L 77.007812 13.152344 C 77.699219 13.09375 78.386719 13.011719 79.078125 12.941406 L 81.148438 12.726562 L 82.179688 12.621094 L 83.214844 12.484375 L 87.34375 11.949219 C 88.71875 11.75 90.089844 11.535156 91.460938 11.328125 L 93.523438 11.011719 L 95.574219 10.65625 L 99.679688 9.945312 L 99.9375 9.902344 L 99.996094 9.890625 C 100.003906 9.890625 100.007812 9.890625 100.007812 9.890625 L 100.039062 9.882812 L 100.171875 9.855469 L 100.699219 9.75 L 101.742188 9.5625 C 102.4375 9.441406 103.132812 9.324219 103.832031 9.21875 C 105.222656 9.007812 106.621094 8.828125 108.023438 8.675781 C 109.109375 8.558594 110.203125 8.457031 111.296875 8.378906 C 111.296875 8.378906 114.046875 7.960938 119.320312 8.144531 C 119.394531 8.148438 119.46875 8.152344 119.542969 8.152344 C 121.347656 8.199219 123.15625 8.316406 124.960938 8.523438 C 126.378906 8.695312 127.792969 8.90625 129.195312 9.203125 C 130.3125 9.445312 131.421875 9.730469 132.519531 10.070312 C 132.886719 10.183594 133.121094 10.519531 133.121094 10.878906 " fill-opacity="1" fill-rule="nonzero"/><path fill="#ffffff" d="M 58.265625 12.847656 C 58.265625 12.847656 58.273438 12.851562 58.273438 12.847656 C 59.632812 12.808594 60.6875 12.5625 61.101562 12.449219 C 61.089844 12.53125 61.109375 12.613281 61.152344 12.6875 C 61.21875 12.792969 61.335938 12.855469 61.460938 12.855469 L 64.386719 12.855469 C 64.652344 12.855469 64.878906 12.667969 64.933594 12.410156 C 65.023438 11.957031 65.105469 11.113281 64.644531 10.519531 C 64.339844 10.132812 63.855469 9.914062 63.195312 9.875 C 61.191406 9.761719 58.957031 11.609375 58.085938 12.410156 C 58.007812 12.480469 57.984375 12.59375 58.027344 12.691406 C 58.066406 12.789062 58.160156 12.847656 58.265625 12.847656 " fill-opacity="1" fill-rule="nonzero"/><path fill="#ffffff" d="M 15.710938 16.605469 L 15.988281 16.496094 L 16.269531 16.40625 L 16.835938 16.230469 L 16.84375 16.230469 C 16.875 16.222656 16.894531 16.1875 16.886719 16.15625 C 16.875 16.121094 16.839844 16.101562 16.808594 16.109375 L 16.226562 16.261719 L 15.933594 16.339844 L 15.648438 16.4375 C 15.460938 16.503906 15.269531 16.566406 15.082031 16.636719 L 14.527344 16.871094 C 14.339844 16.945312 14.164062 17.042969 13.984375 17.128906 C 13.804688 17.222656 13.621094 17.304688 13.449219 17.410156 L 12.925781 17.710938 C 12.753906 17.8125 12.589844 17.925781 12.417969 18.035156 C 12.25 18.140625 12.085938 18.257812 11.921875 18.375 C 11.757812 18.492188 11.59375 18.605469 11.4375 18.730469 C 11.28125 18.855469 11.117188 18.972656 10.964844 19.101562 L 10.503906 19.492188 C 10.199219 19.757812 9.902344 20.027344 9.621094 20.3125 C 9.476562 20.453125 9.335938 20.597656 9.199219 20.746094 C 9.078125 20.875 8.960938 21.003906 8.84375 21.140625 L 8.617188 21.230469 L 8.316406 21.335938 C 8.214844 21.371094 8.113281 21.398438 8.011719 21.429688 C 7.910156 21.460938 7.804688 21.492188 7.703125 21.519531 C 7.289062 21.636719 6.867188 21.734375 6.445312 21.832031 C 5.597656 22.015625 4.742188 22.175781 3.886719 22.3125 C 3.847656 22.316406 3.820312 22.351562 3.824219 22.386719 C 3.828125 22.425781 3.863281 22.457031 3.902344 22.453125 C 4.773438 22.382812 5.640625 22.289062 6.507812 22.167969 C 6.941406 22.105469 7.375 22.035156 7.804688 21.949219 C 7.914062 21.929688 8.023438 21.90625 8.128906 21.882812 C 8.238281 21.859375 8.347656 21.835938 8.453125 21.808594 L 8.78125 21.722656 L 9.105469 21.621094 C 9.148438 21.605469 9.1875 21.578125 9.21875 21.539062 L 9.222656 21.535156 C 9.335938 21.386719 9.460938 21.234375 9.585938 21.085938 C 9.714844 20.941406 9.84375 20.792969 9.976562 20.652344 C 10.242188 20.363281 10.519531 20.085938 10.800781 19.8125 L 11.234375 19.414062 C 11.378906 19.28125 11.53125 19.160156 11.679688 19.03125 C 11.828125 18.902344 11.984375 18.785156 12.140625 18.664062 C 12.296875 18.542969 12.449219 18.417969 12.613281 18.308594 C 12.773438 18.195312 12.933594 18.078125 13.09375 17.96875 L 13.59375 17.652344 C 13.757812 17.542969 13.933594 17.457031 14.105469 17.355469 C 14.277344 17.261719 14.445312 17.160156 14.628906 17.082031 L 15.160156 16.824219 C 15.34375 16.746094 15.527344 16.679688 15.710938 16.605469 " fill-opacity="1" fill-rule="nonzero"/><g clip-path="url(#a350f84a21)"><path fill="#d9d9d9" d="M 133.578125 16.199219 C 133.5625 16.308594 133.527344 16.417969 133.480469 16.472656 C 133.472656 16.484375 133.464844 16.488281 133.453125 16.496094 C 133.453125 16.496094 133.449219 16.5 133.449219 16.5 L 133.4375 16.5 C 133.445312 16.5 133.449219 16.496094 133.453125 16.496094 L 133.449219 16.496094 L 133.4375 16.5 L 133.386719 16.507812 C 133.375 16.507812 133.382812 16.5 133.382812 16.5 C 133.394531 16.496094 133.371094 16.488281 133.355469 16.484375 C 133.28125 16.457031 133.1875 16.378906 133.097656 16.292969 C 132.914062 16.117188 132.75 15.882812 132.597656 15.640625 C 132.445312 15.394531 132.300781 15.132812 132.175781 14.863281 L 132.078125 14.65625 L 131.996094 14.457031 C 131.9375 14.320312 131.886719 14.183594 131.839844 14.046875 C 131.75 13.773438 131.671875 13.5 131.648438 13.246094 C 131.640625 13.125 131.644531 13 131.667969 12.929688 C 131.671875 12.914062 131.675781 12.894531 131.683594 12.886719 C 131.6875 12.875 131.691406 12.871094 131.695312 12.863281 L 131.699219 12.859375 C 131.699219 12.859375 131.695312 12.859375 131.691406 12.859375 C 131.6875 12.863281 131.675781 12.867188 131.667969 12.871094 C 131.667969 12.871094 131.667969 12.867188 131.671875 12.867188 L 131.691406 12.859375 L 131.695312 12.859375 L 131.742188 12.839844 L 131.742188 12.84375 C 131.746094 12.839844 131.746094 12.839844 131.753906 12.839844 C 131.828125 12.839844 131.933594 12.878906 132.03125 12.941406 C 132.125 13 132.214844 13.070312 132.300781 13.148438 C 132.46875 13.296875 132.601562 13.464844 132.714844 13.613281 C 132.828125 13.761719 132.914062 13.898438 132.984375 14.019531 C 133.050781 14.132812 133.101562 14.226562 133.132812 14.292969 C 133.164062 14.355469 133.183594 14.390625 133.183594 14.394531 C 133.183594 14.394531 133.199219 14.429688 133.230469 14.496094 C 133.257812 14.5625 133.300781 14.660156 133.347656 14.785156 C 133.394531 14.910156 133.449219 15.066406 133.492188 15.246094 C 133.535156 15.429688 133.578125 15.636719 133.585938 15.859375 C 133.59375 15.972656 133.589844 16.085938 133.578125 16.199219 Z M 133.894531 15.824219 C 133.800781 15.335938 133.644531 14.96875 133.539062 14.710938 C 133.484375 14.578125 133.441406 14.480469 133.410156 14.410156 C 133.378906 14.34375 133.363281 14.308594 133.363281 14.308594 C 133.363281 14.308594 133.34375 14.273438 133.3125 14.207031 C 133.28125 14.136719 133.230469 14.042969 133.164062 13.917969 C 133.03125 13.671875 132.839844 13.320312 132.523438 12.9375 C 132.441406 12.84375 132.351562 12.746094 132.242188 12.65625 C 132.132812 12.566406 132.007812 12.46875 131.808594 12.425781 C 131.761719 12.414062 131.675781 12.417969 131.613281 12.425781 L 131.5625 12.433594 L 131.539062 12.441406 C 131.527344 12.445312 131.503906 12.453125 131.503906 12.453125 L 131.5 12.457031 L 131.488281 12.460938 L 131.46875 12.472656 C 131.410156 12.5 131.359375 12.539062 131.320312 12.585938 C 131.277344 12.628906 131.253906 12.671875 131.226562 12.71875 C 131.125 12.902344 131.101562 13.078125 131.089844 13.246094 C 131.070312 13.585938 131.121094 13.910156 131.203125 14.230469 C 131.238281 14.390625 131.289062 14.546875 131.347656 14.703125 C 131.375 14.78125 131.40625 14.863281 131.4375 14.9375 L 131.535156 15.160156 C 131.679688 15.460938 131.847656 15.746094 132.046875 16.011719 C 132.246094 16.273438 132.464844 16.519531 132.742188 16.71875 C 132.882812 16.820312 133.03125 16.914062 133.238281 16.957031 C 133.292969 16.960938 133.335938 16.976562 133.417969 16.964844 C 133.453125 16.960938 133.496094 16.957031 133.523438 16.949219 L 133.570312 16.929688 L 133.628906 16.90625 L 133.664062 16.882812 C 133.691406 16.863281 133.714844 16.84375 133.738281 16.828125 C 133.773438 16.785156 133.816406 16.738281 133.835938 16.699219 C 133.929688 16.515625 133.9375 16.359375 133.933594 16.21875 C 133.933594 16.078125 133.917969 15.945312 133.894531 15.824219 " fill-opacity="1" fill-rule="nonzero"/></g><g clip-path="url(#a103e7bd09)"><path fill="#ffffff" d="M 26.203125 18.082031 C 21.5 18.082031 17.21875 20.652344 15.03125 24.785156 C 14.980469 24.878906 15.011719 24.996094 15.105469 25.046875 C 15.195312 25.101562 15.3125 25.070312 15.371094 24.984375 C 17.683594 21.421875 21.9375 19.121094 26.203125 19.121094 C 30.570312 19.121094 34.859375 21.496094 37.136719 25.175781 C 37.175781 25.238281 37.238281 25.269531 37.304688 25.269531 C 37.339844 25.269531 37.371094 25.261719 37.402344 25.246094 C 37.496094 25.195312 37.53125 25.082031 37.484375 24.988281 C 35.328125 20.726562 31.003906 18.082031 26.203125 18.082031 " fill-opacity="1" fill-rule="nonzero"/></g><path fill="#ffffff" d="M 111.148438 17.496094 C 106.445312 17.496094 102.160156 20.0625 99.972656 24.199219 C 99.921875 24.292969 99.957031 24.40625 100.046875 24.460938 C 100.140625 24.511719 100.257812 24.484375 100.3125 24.394531 C 102.628906 20.832031 106.878906 18.53125 111.148438 18.53125 C 115.511719 18.53125 119.804688 20.910156 122.078125 24.589844 C 122.117188 24.648438 122.183594 24.683594 122.25 24.683594 C 122.28125 24.683594 122.316406 24.675781 122.34375 24.65625 C 122.4375 24.605469 122.472656 24.492188 122.425781 24.398438 C 120.269531 20.140625 115.949219 17.496094 111.148438 17.496094 " fill-opacity="1" fill-rule="nonzero"/><path fill="#ffffff" d="M 93.144531 18.621094 C 93.257812 18.128906 93.203125 17.667969 93.132812 17.363281 C 93.058594 17.03125 92.746094 16.808594 92.402344 16.824219 C 90.296875 16.941406 88.984375 17.933594 88.519531 18.355469 C 88.429688 18.433594 88.394531 18.546875 88.417969 18.664062 C 88.441406 18.777344 88.523438 18.867188 88.632812 18.902344 C 89.46875 19.183594 90.441406 19.261719 91.257812 19.261719 C 91.722656 19.261719 92.140625 19.234375 92.453125 19.210938 C 92.789062 19.179688 93.070312 18.941406 93.144531 18.621094 " fill-opacity="1" fill-rule="nonzero"/><path fill="#ffffff" d="M 46.238281 15.335938 C 45.902344 15.335938 45.628906 15.609375 45.628906 15.941406 C 45.628906 16.277344 45.902344 16.546875 46.238281 16.546875 C 46.578125 16.546875 46.851562 16.277344 46.851562 15.941406 C 46.851562 15.609375 46.578125 15.335938 46.238281 15.335938 " fill-opacity="1" fill-rule="nonzero"/><g clip-path="url(#f637916e94)"><path fill="#ffffff" d="M 94.703125 17.410156 C 94.675781 17.097656 94.617188 16.808594 94.566406 16.542969 C 94.507812 16.28125 94.449219 16.039062 94.378906 15.828125 C 94.320312 15.617188 94.25 15.441406 94.191406 15.292969 C 94.070312 15 93.976562 14.847656 93.976562 14.847656 C 93.976562 14.847656 93.996094 14.890625 94.019531 14.96875 C 94.046875 15.046875 94.078125 15.167969 94.117188 15.316406 C 94.152344 15.46875 94.195312 15.652344 94.234375 15.863281 C 94.257812 15.96875 94.273438 16.085938 94.289062 16.203125 C 94.304688 16.324219 94.328125 16.449219 94.34375 16.582031 C 94.367188 16.84375 94.398438 17.128906 94.410156 17.433594 C 94.433594 17.734375 94.417969 18.054688 94.425781 18.382812 C 94.417969 18.714844 94.394531 19.054688 94.375 19.398438 C 94.355469 19.574219 94.339844 19.746094 94.320312 19.921875 L 94.296875 20.183594 C 94.285156 20.269531 94.265625 20.359375 94.253906 20.445312 C 94.195312 20.792969 94.160156 21.144531 94.078125 21.484375 C 94 21.820312 93.957031 22.164062 93.863281 22.480469 C 93.78125 22.800781 93.703125 23.113281 93.628906 23.410156 C 93.535156 23.699219 93.453125 23.976562 93.378906 24.230469 C 93.339844 24.359375 93.304688 24.484375 93.269531 24.597656 C 93.230469 24.714844 93.191406 24.824219 93.15625 24.925781 C 93.085938 25.132812 93.027344 25.3125 92.976562 25.460938 C 92.878906 25.757812 92.824219 25.929688 92.824219 25.929688 C 92.824219 25.929688 92.90625 25.769531 93.046875 25.488281 C 93.117188 25.347656 93.199219 25.175781 93.296875 24.980469 C 93.34375 24.882812 93.394531 24.777344 93.449219 24.667969 C 93.492188 24.550781 93.542969 24.433594 93.59375 24.308594 C 93.691406 24.058594 93.800781 23.785156 93.910156 23.496094 C 94.007812 23.203125 94.101562 22.890625 94.199219 22.566406 C 94.226562 22.488281 94.25 22.40625 94.273438 22.324219 C 94.292969 22.238281 94.3125 22.15625 94.335938 22.070312 C 94.375 21.902344 94.414062 21.730469 94.453125 21.558594 C 94.542969 21.214844 94.582031 20.855469 94.644531 20.5 C 94.660156 20.410156 94.671875 20.320312 94.683594 20.230469 L 94.707031 19.960938 C 94.722656 19.78125 94.738281 19.605469 94.753906 19.425781 C 94.773438 19.25 94.765625 19.070312 94.769531 18.898438 C 94.769531 18.722656 94.78125 18.550781 94.773438 18.382812 C 94.757812 18.042969 94.746094 17.714844 94.703125 17.410156 " fill-opacity="1" fill-rule="nonzero"/></g><g fill="#f8f8f8" fill-opacity="1"><g transform="translate(41.024068, 29.171111)"><g><path d="M 5.964844 0 L 6.882812 -0.917969 L 6.882812 -2.292969 L 5.964844 -3.210938 L 6.882812 -4.128906 L 6.882812 -5.507812 L 5.964844 -6.425781 L 0.046875 -6.425781 L 0.046875 -4.957031 L 0.734375 -4.957031 L 0.734375 0 Z M 5.414062 -1.46875 L 2.203125 -1.46875 L 2.203125 -2.476562 L 5.414062 -2.476562 Z M 5.414062 -3.945312 L 2.203125 -3.945312 L 2.203125 -4.957031 L 5.414062 -4.957031 Z M 5.414062 -3.945312 "/></g></g></g><g fill="#f8f8f8" fill-opacity="1"><g transform="translate(49.171683, 29.171111)"><g><path d="M 6.972656 -0.917969 L 6.972656 -6.425781 L 5.507812 -6.425781 L 5.507812 -1.46875 L 2.203125 -1.46875 L 2.203125 -6.425781 L 0.046875 -6.425781 L 0.046875 -4.957031 L 0.734375 -4.957031 L 0.734375 -0.917969 L 1.652344 0 L 6.058594 0 Z M 6.972656 -0.917969 "/></g></g></g><g fill="#f8f8f8" fill-opacity="1"><g transform="translate(57.411048, 29.171111)"><g><path d="M 6.011719 0 L 6.929688 -0.917969 L 6.929688 -6.425781 L 5.460938 -6.425781 L 5.460938 -3.992188 L 1.925781 -3.992188 L 1.925781 -6.425781 L 0.457031 -6.425781 L 0.457031 -3.441406 L 1.375 -2.523438 L 5.460938 -2.523438 L 5.460938 -1.46875 L 0.917969 -1.46875 L 0.917969 0 Z M 6.011719 0 "/></g></g></g><g fill="#f8f8f8" fill-opacity="1"><g transform="translate(65.604538, 29.171111)"><g/></g></g><g fill="#f8f8f8" fill-opacity="1"><g transform="translate(70.082153, 29.171111)"><g><path d="M 6.699219 0 L 6.699219 -1.46875 L 1.925781 -1.46875 L 1.925781 -4.957031 L 5.460938 -4.957031 L 5.460938 -4.039062 L 6.929688 -4.039062 L 6.929688 -5.507812 L 6.011719 -6.425781 L 1.375 -6.425781 L 0.457031 -5.507812 L 0.457031 -0.917969 L 1.375 0 Z M 6.699219 0 "/></g></g></g><g fill="#f8f8f8" fill-opacity="1"><g transform="translate(78.275642, 29.171111)"><g><path d="M 7.734375 0 L 4.734375 -6.425781 L 1.707031 -6.425781 L 1.707031 -4.957031 L 2.394531 -4.957031 L 0.0898438 0 L 1.699219 0 L 2.210938 -1.101562 L 5.605469 -1.101562 L 6.128906 0 Z M 4.917969 -2.570312 L 2.890625 -2.570312 L 3.871094 -4.984375 L 3.9375 -4.984375 Z M 4.917969 -2.570312 "/></g></g></g><g fill="#f8f8f8" fill-opacity="1"><g transform="translate(86.909533, 29.171111)"><g><path d="M 5.597656 -1.558594 L 6.515625 -2.476562 L 6.515625 -5.507812 L 5.597656 -6.425781 L 0.046875 -6.425781 L 0.046875 -4.957031 L 5.046875 -4.957031 L 5.046875 -3.027344 L 2.203125 -3.027344 L 2.203125 -4.496094 L 0.734375 -4.496094 L 0.734375 0 L 2.203125 0 L 2.203125 -1.558594 L 3.734375 -1.558594 C 4.195312 -1.035156 4.644531 -0.515625 5.113281 0 L 6.972656 0 C 6.507812 -0.515625 6.058594 -1.035156 5.597656 -1.558594 Z M 5.597656 -1.558594 "/></g></g></g><g fill="#d9d9d9" fill-opacity="1"><g transform="translate(33.205873, 35.445024)"><g><path d="M 1.960938 0 L 1.960938 -3.066406 L 3.40625 -3.066406 L 3.40625 -3.402344 L 0.113281 -3.402344 L 0.113281 -3.066406 L 1.605469 -3.066406 L 1.605469 0 Z M 1.960938 0 "/></g></g></g><g fill="#d9d9d9" fill-opacity="1"><g transform="translate(36.936867, 35.445024)"><g><path d="M 3.929688 0 L 3.929688 -3.402344 L 3.570312 -3.402344 L 3.570312 -1.871094 L 0.875 -1.871094 L 0.875 -3.402344 L 0.515625 -3.402344 L 0.515625 0 L 0.875 0 L 0.875 -1.53125 L 3.570312 -1.53125 L 3.570312 0 Z M 3.929688 0 "/></g></g></g><g fill="#d9d9d9" fill-opacity="1"><g transform="translate(41.586436, 35.445024)"><g><path d="M 3.457031 0 L 3.457031 -0.335938 L 0.875 -0.335938 L 0.875 -1.53125 L 3.179688 -1.53125 L 3.179688 -1.871094 L 0.875 -1.871094 L 0.875 -3.066406 L 3.457031 -3.066406 L 3.457031 -3.402344 L 0.515625 -3.402344 L 0.515625 0 Z M 3.457031 0 "/></g></g></g><g fill="#d9d9d9" fill-opacity="1"><g transform="translate(45.572592, 35.445024)"><g/></g></g><g fill="#d9d9d9" fill-opacity="1"><g transform="translate(47.36438, 35.445024)"><g><path d="M 2.8125 0 C 3.40625 0 3.882812 -0.261719 3.882812 -0.890625 C 3.882812 -1.378906 3.589844 -1.640625 3.191406 -1.707031 C 3.554688 -1.796875 3.816406 -2.070312 3.816406 -2.527344 C 3.816406 -3.160156 3.316406 -3.402344 2.746094 -3.402344 L 0.515625 -3.402344 L 0.515625 0 Z M 2.8125 -1.53125 C 3.203125 -1.53125 3.527344 -1.339844 3.527344 -0.914062 C 3.527344 -0.480469 3.210938 -0.335938 2.8125 -0.335938 L 0.875 -0.335938 L 0.875 -1.53125 Z M 2.746094 -3.066406 C 3.128906 -3.066406 3.457031 -2.921875 3.457031 -2.496094 C 3.457031 -2.070312 3.136719 -1.871094 2.746094 -1.871094 L 0.875 -1.871094 L 0.875 -3.066406 Z M 2.746094 -3.066406 "/></g></g></g><g fill="#d9d9d9" fill-opacity="1"><g transform="translate(51.764461, 35.445024)"><g><path d="M 3.457031 0 L 3.457031 -0.335938 L 0.875 -0.335938 L 0.875 -1.53125 L 3.179688 -1.53125 L 3.179688 -1.871094 L 0.875 -1.871094 L 0.875 -3.066406 L 3.457031 -3.066406 L 3.457031 -3.402344 L 0.515625 -3.402344 L 0.515625 0 Z M 3.457031 0 "/></g></g></g><g fill="#d9d9d9" fill-opacity="1"><g transform="translate(55.750616, 35.445024)"><g><path d="M 0.261719 -0.234375 C 0.691406 -0.0390625 1.277344 0.0664062 1.78125 0.0664062 C 2.546875 0.0664062 3.390625 -0.199219 3.390625 -0.914062 C 3.390625 -1.578125 2.675781 -1.722656 1.761719 -1.867188 C 1.152344 -1.960938 0.636719 -2.035156 0.636719 -2.484375 C 0.636719 -2.953125 1.203125 -3.128906 1.808594 -3.128906 C 2.289062 -3.128906 2.738281 -3.035156 3.136719 -2.851562 C 3.179688 -2.953125 3.214844 -3.0625 3.261719 -3.167969 C 2.824219 -3.363281 2.335938 -3.46875 1.820312 -3.46875 C 1.03125 -3.46875 0.277344 -3.1875 0.277344 -2.472656 C 0.277344 -1.171875 3.035156 -1.832031 3.035156 -0.894531 C 3.035156 -0.4375 2.414062 -0.253906 1.796875 -0.253906 C 1.28125 -0.253906 0.78125 -0.363281 0.355469 -0.542969 Z M 0.261719 -0.234375 "/></g></g></g><g fill="#d9d9d9" fill-opacity="1"><g transform="translate(59.651715, 35.445024)"><g><path d="M 1.960938 0 L 1.960938 -3.066406 L 3.40625 -3.066406 L 3.40625 -3.402344 L 0.113281 -3.402344 L 0.113281 -3.066406 L 1.605469 -3.066406 L 1.605469 0 Z M 1.960938 0 "/></g></g></g><g fill="#d9d9d9" fill-opacity="1"><g transform="translate(63.382709, 35.445024)"><g/></g></g><g fill="#d9d9d9" fill-opacity="1"><g transform="translate(65.174498, 35.445024)"><g><path d="M 3.480469 -0.542969 C 3.085938 -0.367188 2.640625 -0.265625 2.183594 -0.265625 C 1.359375 -0.265625 0.699219 -0.679688 0.699219 -1.699219 C 0.699219 -2.722656 1.367188 -3.136719 2.183594 -3.136719 C 2.640625 -3.136719 3.085938 -3.035156 3.480469 -2.851562 L 3.582031 -3.167969 C 3.160156 -3.363281 2.683594 -3.46875 2.183594 -3.46875 C 1.15625 -3.46875 0.339844 -2.953125 0.339844 -1.699219 C 0.339844 -0.449219 1.15625 0.0664062 2.183594 0.0664062 C 2.683594 0.0664062 3.160156 -0.0390625 3.582031 -0.234375 Z M 3.480469 -0.542969 "/></g></g></g><g fill="#d9d9d9" fill-opacity="1"><g transform="translate(69.183336, 35.445024)"><g><path d="M 4.078125 0 L 2.269531 -3.402344 L 1.929688 -3.402344 L 0.113281 0 L 0.515625 0 L 0.953125 -0.820312 L 3.238281 -0.820312 C 3.386719 -0.550781 3.527344 -0.273438 3.679688 0 Z M 3.0625 -1.164062 L 1.128906 -1.164062 L 2.105469 -2.988281 C 2.421875 -2.382812 2.738281 -1.769531 3.0625 -1.164062 Z M 3.0625 -1.164062 "/></g></g></g><g fill="#d9d9d9" fill-opacity="1"><g transform="translate(73.583417, 35.445024)"><g><path d="M 3.714844 0 L 2.800781 -1.195312 C 3.339844 -1.253906 3.742188 -1.605469 3.742188 -2.296875 C 3.742188 -3.074219 3.226562 -3.402344 2.570312 -3.402344 L 0.511719 -3.402344 L 0.511719 0 L 0.867188 0 L 0.867188 -1.191406 L 2.363281 -1.191406 L 3.277344 0 Z M 2.570312 -3.066406 C 3.015625 -3.066406 3.386719 -2.839844 3.386719 -2.296875 C 3.386719 -1.746094 3.015625 -1.523438 2.570312 -1.523438 L 0.867188 -1.523438 L 0.867188 -3.066406 Z M 2.570312 -3.066406 "/></g></g></g><g fill="#d9d9d9" fill-opacity="1"><g transform="translate(77.909783, 35.445024)"><g><path d="M 0.261719 -0.234375 C 0.691406 -0.0390625 1.277344 0.0664062 1.78125 0.0664062 C 2.546875 0.0664062 3.390625 -0.199219 3.390625 -0.914062 C 3.390625 -1.578125 2.675781 -1.722656 1.761719 -1.867188 C 1.152344 -1.960938 0.636719 -2.035156 0.636719 -2.484375 C 0.636719 -2.953125 1.203125 -3.128906 1.808594 -3.128906 C 2.289062 -3.128906 2.738281 -3.035156 3.136719 -2.851562 C 3.179688 -2.953125 3.214844 -3.0625 3.261719 -3.167969 C 2.824219 -3.363281 2.335938 -3.46875 1.820312 -3.46875 C 1.03125 -3.46875 0.277344 -3.1875 0.277344 -2.472656 C 0.277344 -1.171875 3.035156 -1.832031 3.035156 -0.894531 C 3.035156 -0.4375 2.414062 -0.253906 1.796875 -0.253906 C 1.28125 -0.253906 0.78125 -0.363281 0.355469 -0.542969 Z M 0.261719 -0.234375 "/></g></g></g><g fill="#d9d9d9" fill-opacity="1"><g transform="translate(81.810882, 35.445024)"><g/></g></g><g fill="#d9d9d9" fill-opacity="1"><g transform="translate(83.60267, 35.445024)"><g><path d="M 3.929688 0 L 3.929688 -3.402344 L 3.570312 -3.402344 L 3.570312 -1.871094 L 0.875 -1.871094 L 0.875 -3.402344 L 0.515625 -3.402344 L 0.515625 0 L 0.875 0 L 0.875 -1.53125 L 3.570312 -1.53125 L 3.570312 0 Z M 3.929688 0 "/></g></g></g><g fill="#d9d9d9" fill-opacity="1"><g transform="translate(88.252238, 35.445024)"><g><path d="M 3.457031 0 L 3.457031 -0.335938 L 0.875 -0.335938 L 0.875 -1.53125 L 3.179688 -1.53125 L 3.179688 -1.871094 L 0.875 -1.871094 L 0.875 -3.066406 L 3.457031 -3.066406 L 3.457031 -3.402344 L 0.515625 -3.402344 L 0.515625 0 Z M 3.457031 0 "/></g></g></g><g fill="#d9d9d9" fill-opacity="1"><g transform="translate(92.238394, 35.445024)"><g><path d="M 3.714844 0 L 2.800781 -1.195312 C 3.339844 -1.253906 3.742188 -1.605469 3.742188 -2.296875 C 3.742188 -3.074219 3.226562 -3.402344 2.570312 -3.402344 L 0.511719 -3.402344 L 0.511719 0 L 0.867188 0 L 0.867188 -1.191406 L 2.363281 -1.191406 L 3.277344 0 Z M 2.570312 -3.066406 C 3.015625 -3.066406 3.386719 -2.839844 3.386719 -2.296875 C 3.386719 -1.746094 3.015625 -1.523438 2.570312 -1.523438 L 0.867188 -1.523438 L 0.867188 -3.066406 Z M 2.570312 -3.066406 "/></g></g></g><g fill="#d9d9d9" fill-opacity="1"><g transform="translate(96.56476, 35.445024)"><g><path d="M 3.457031 0 L 3.457031 -0.335938 L 0.875 -0.335938 L 0.875 -1.53125 L 3.179688 -1.53125 L 3.179688 -1.871094 L 0.875 -1.871094 L 0.875 -3.066406 L 3.457031 -3.066406 L 3.457031 -3.402344 L 0.515625 -3.402344 L 0.515625 0 Z M 3.457031 0 "/></g></g></g><g fill="#d9d9d9" fill-opacity="1"><g transform="translate(100.550919, 35.445024)"><g><path d="M 0.804688 -3.503906 L 0.425781 -3.503906 L 0.503906 -0.980469 L 0.730469 -0.980469 Z M 0.617188 0.046875 C 0.78125 0.046875 0.90625 -0.078125 0.90625 -0.242188 C 0.90625 -0.410156 0.78125 -0.53125 0.617188 -0.53125 C 0.453125 -0.53125 0.328125 -0.410156 0.328125 -0.242188 C 0.328125 -0.078125 0.453125 0.046875 0.617188 0.046875 Z M 0.617188 0.046875 "/></g></g></g></svg>